<?xml version="1.0" encoding="utf-8"?>
<!-- Generator: Adobe Illustrator 17.0.0, SVG Export Plug-In . SVG Version: 6.00 Build 0)  -->
<!DOCTYPE svg PUBLIC "-//W3C//DTD SVG 1.1//EN" "http://www.w3.org/Graphics/SVG/1.1/DTD/svg11.dtd">
<svg version="1.1" id="Layer_1" xmlns="http://www.w3.org/2000/svg" xmlns:xlink="http://www.w3.org/1999/xlink" x="0px" y="0px"
	 width="265px" height="325px" viewBox="0 0 265 325" style="enable-background:new 0 0 265 325;" xml:space="preserve">
<style type="text/css">
	.st0{clip-path:url(#SVGID_2_);fill:#096088;}
	.st1{fill:#231F20;}
	.st2{font-family:'Bree-Regular';}
	.st3{font-size:45.8194;}
	.st4{clip-path:url(#SVGID_4_);fill:#F89A20;}
	.st5{clip-path:url(#SVGID_4_);fill:#FFFFFF;}
	.st6{clip-path:url(#SVGID_4_);fill:#096088;}
	.st7{clip-path:url(#SVGID_4_);fill:#304354;}
	.st8{clip-path:url(#SVGID_4_);fill:#42AAD9;}
	.st9{clip-path:url(#SVGID_4_);fill:#2179B7;}
	.st10{clip-path:url(#SVGID_4_);fill:#1E75AB;}
</style>
<g>
	<defs>
		<rect id="SVGID_1_" width="265" height="411"/>
	</defs>
	<clipPath id="SVGID_2_">
		<use xlink:href="#SVGID_1_"  style="overflow:visible;"/>
	</clipPath>
	<path class="st0" d="M79.1,267.4c0,0-0.4-10.9-3-35.9c-2.6-25.1,2.2-85.3,3.4-97.3c1.1-12,5.6-18.3,5.6-18.3s0.1-0.1,0.3-0.2
		l-49.3,16.8c-12.1,17.9-20.1,38-19.6,61.6c0.5,25,10.8,48.4,26.9,66.9l37.5,15L79.1,267.4z"/>
</g>
<text transform="matrix(1 0 0 1 144.8408 346.8945)" class="st1 st2 st3"> </text>
<g>
	<defs>
		<rect id="SVGID_3_" width="265" height="411"/>
	</defs>
	<clipPath id="SVGID_4_">
		<use xlink:href="#SVGID_3_"  style="overflow:visible;"/>
	</clipPath>
	<path class="st4" d="M131,14.8v-0.4c0,0.1,0,0.1,0,0.2c0-0.1,0-0.1,0-0.2L131,14.8c-1.9,52.6-116.4,92.4-114.5,179.4
		c1.3,58.6,55.8,108.1,114.4,108.7v-0.3c0,0,0.1,0,0.1,0s0.1,0,0.1,0v0.3c58.6-0.5,113.1-50,114.4-108.7
		C247.4,107.2,132.9,67.4,131,14.8"/>
	<path class="st5" d="M85.1,115.9c0,0-4.5,6.4-5.6,18.3c-1.1,12-6,72.2-3.4,97.3c2.6,25.1,3,35.9,3,35.9l1.9,9
		c0,0,50.5,15.7,85.7,17.2c23.9,1,46,0,55.7-6.4c13.4-8.7,15.7-18,16.8-24.3c1.1-6.4,0.5-28.5-10.1-51.3
		c-4.9-10.5-32.5-81.2-32.5-81.2s-2.2-7.5-15-12.3c-16.8-6.4-47.1-9.4-66.6-9C95.6,109.6,85.1,115.9,85.1,115.9"/>
	<path class="st6" d="M233.1,221.5l-0.8,0.3l-1.1,0.1c0.5,1.5,0.8,2.5,0.9,2.9c0.7,4.8-9.8,13.2-47.2,1.9l-6.5,0.7l-17.8,13.1
		c0,0,11.6,15.7,10.5,34.2c0,0,48.4,2.8,59.9-2.4c0,0,4.2-1.8,6.6-2.8c0.9-2.4,1.3-4.6,1.7-6.6C240.2,257.5,239.9,240.5,233.1,221.5
		"/>
	<path class="st7" d="M125.1,123c0,0,19.8,91.3,58.4,103.3c38.5,12,49.4,3.4,48.6-1.5c-0.7-4.9-37-93.5-37-93.5
		S183.5,117.4,125.1,123"/>
	<path class="st7" d="M99.7,120.4c0,0,13.8-5.6,17.6,4.1c3.7,9.7,33.7,111.5,33.7,111.5s1.9,17.2-11.6,23.9
		c-13.5,6.7-28.8-6.4-30.7-10.5c-1.9-4.1-23.9-86.8-22.8-104C85.8,145.5,88.5,125.6,99.7,120.4"/>
	<path class="st7" d="M181.9,246.5c0,0-0.7-5.3,4.6-4.9c4.6,0.4,5.8,4.1,5.6,5.6c-0.2,1.8-1.8,4.1-6,3.4
		C182.3,250,181.9,246.5,181.9,246.5"/>
	<path class="st8" d="M187.1,245.9c0,2.1-1.2,3.8-2.7,3.8c-1.5,0-2.7-1.8-2.7-3.9c0-2.1,1.2-3.7,2.7-3.7
		C185.9,242.1,187.1,243.8,187.1,245.9"/>
	<path class="st7" d="M192.1,253.1c0,0-0.6-4.7,4.1-4.3c4.1,0.3,5.1,3.6,4.9,4.9c-0.1,1.6-1.6,3.6-5.3,3
		C192.5,256.1,192.1,253.1,192.1,253.1"/>
	<path class="st8" d="M196.7,252.5c0,1.8-1,3.3-2.3,3.3c-1.3,0-2.4-1.6-2.4-3.5c0-1.8,1.1-3.2,2.4-3.2
		C195.7,249.2,196.7,250.6,196.7,252.5"/>
	<path class="st7" d="M203.4,253.3c0,0-0.6-4.2,3.7-3.9c3.7,0.3,4.6,3.2,4.5,4.5c-0.1,1.4-1.4,3.2-4.8,2.7
		C203.8,256,203.4,253.3,203.4,253.3"/>
	<path class="st8" d="M207.6,252.7c0,1.7-0.9,3-2.1,3s-2.1-1.5-2.1-3.1c0-1.7,1-2.9,2.1-2.9S207.6,251,207.6,252.7"/>
	<path class="st9" d="M231,272.3c-11.4,5.2-59.9,2.4-59.9,2.4c-1,14-3.3,17.9-4.3,18.9c23.9,1,45.9,0,55.6-6.4
		c9.3-6.1,13.2-12.3,15.2-17.8C235.2,270.5,231,272.3,231,272.3"/>
	<path class="st5" d="M160.7,240.5l-9.7-1.1c-0.2,5.4-1.9,15.7-11.7,20.5c-13.5,6.7-28.8-6.4-30.7-10.5c-0.5-1-2.2-6.9-4.5-15.4
		L76,230.9c0,0.2,0,0.4,0.1,0.6c2.6,25.1,3,35.9,3,35.9l1.9,9c0,0,50.5,15.7,85.7,17.2c0,0,0.1,0,0.1,0c1-1,3.3-4.9,4.4-18.9
		C172.2,256.6,161.1,241.2,160.7,240.5"/>
	<path class="st10" d="M183.5,226.3c-28.4-8.8-46.7-60.8-54.3-87.5l-5,0.3l-1.9,1c9.6,31.1,28.7,95.9,28.7,95.9s0.2,1.4,0.1,3.6
		c0-0.1,0-0.1,0-0.2l9.7,1.1c0,0,0,0,0,0c0,0,0,0,0,0l17.8-13.1l6.5-0.7c0,0,0,0,0.1,0C184.5,226.6,184,226.5,183.5,226.3"/>
	<path class="st10" d="M104.2,234.1c-6.9-25.7-19.2-75.7-18.4-88.6c0,0,0-0.2,0.1-0.6c-1.1-0.1-3.1-0.3-3.1-0.3s-1.7,0.9-2.6,0.9
		c-0.8,0-1.1,0.4-1.7,0.5c-1.7,22-4.4,64.4-2.4,84.9L104.2,234.1z"/>
	<path class="st6" d="M79.1,267.4c0,0-0.4-10.9-3-35.9c-2.6-25.1,2.2-85.3,3.4-97.3c1.1-12,5.6-18.3,5.6-18.3s0.1-0.1,0.3-0.2
		l-49.3,16.8c-12.1,17.9-20.1,38-19.6,61.6c0.5,25,10.8,48.4,26.9,66.9l37.5,15L79.1,267.4z"/>
	<path class="st7" d="M66.4,146.8c0,0-2.8,93.1,1.7,113.9l-23.6-8.4l-0.6-101L66.4,146.8z"/>
	<path class="st7" d="M181.9,246.5c0,0-0.7-5.3,4.6-4.9c4.6,0.4,5.8,4.1,5.6,5.6c-0.2,1.8-1.8,4.1-6,3.4
		C182.3,250,181.9,246.5,181.9,246.5"/>
	<path class="st8" d="M187.1,245.9c0,2.1-1.2,3.8-2.7,3.8c-1.5,0-2.7-1.8-2.7-3.9c0-2.1,1.2-3.7,2.7-3.7
		C185.9,242.1,187.1,243.8,187.1,245.9"/>
	<path class="st7" d="M192.1,253.1c0,0-0.6-4.7,4.1-4.3c4.1,0.3,5.1,3.6,4.9,4.9c-0.1,1.6-1.6,3.6-5.3,3
		C192.5,256.1,192.1,253.1,192.1,253.1"/>
	<path class="st8" d="M196.7,252.5c0,1.8-1,3.3-2.3,3.3c-1.3,0-2.4-1.6-2.4-3.5c0-1.8,1.1-3.2,2.4-3.2
		C195.7,249.2,196.7,250.6,196.7,252.5"/>
	<path class="st7" d="M203.4,253.3c0,0-0.6-4.2,3.7-3.9c3.7,0.3,4.6,3.2,4.5,4.5c-0.1,1.4-1.4,3.2-4.8,2.7
		C203.8,256,203.4,253.3,203.4,253.3"/>
	<path class="st8" d="M207.6,252.7c0,1.7-0.9,3-2.1,3s-2.1-1.5-2.1-3.1c0-1.7,1-2.9,2.1-2.9S207.6,251,207.6,252.7"/>
	<path class="st7" d="M16.5,194.1c0.2,9.2,1.7,18.1,4.3,26.7l19.2,2.3l0.1-70.7l-16.1,2.2C19.1,166.6,16.2,179.7,16.5,194.1"/>
</g>
</svg>
